<svg id="Capa_1" enable-background="new 0 0 512 512" height="512" viewBox="0 0 512 512" width="512" xmlns="http://www.w3.org/2000/svg"><g><g><g><path d="m209.76 291.339h92.48v62.658h-92.48z" fill="#f6a96c"/><path d="m428.033 396.498v103.392c0 2.543-1.054 3.597-3.597 3.597l-30.102 1.013h-21.224l-7.598-10.132-7.599 10.132h-75.074l-27.345-10.132-26.332 10.132h-75.075l-5.228-10.132-9.97 10.132h-51.325c-2.543 0-4.61-2.067-4.61-4.61v-103.392c0-38.084 30.871-68.955 68.955-68.955h57.851v-30.891l46.098 55.997.142.162.142-.162 46.098-56.007v30.901h31.519l26.332 1.013c38.084 0 67.942 29.858 67.942 67.942z" fill="#685e68"/><g fill="#eef5f6"><path d="m250.661 358.616-38.966 42.37-7.123-42.37z"/><path d="m307.427 358.616-7.122 42.37-38.966-42.37z"/><path d="m282.92 504.497-25.4-10.132-28.44 10.132-24.505-145.876h102.851z"/></g><path d="m429.046 396.498v103.392c0 2.543-2.067 4.61-4.61 4.61h-30.395c2.543 0 4.61-2.067 4.61-4.61v-103.392c0-38.084-30.871-68.955-68.955-68.955h30.395c38.084 0 68.955 30.871 68.955 68.955z" fill="#433f43"/><path d="m256.01 373.084h-.02l.01-.01z" fill="#eef5f6"/><path d="m300.305 400.986-2.877 17.133-41.418-45.035-.01-.01-.01.01-41.418 45.035-2.877-17.133 38.966-42.37h10.678z" fill="#deecf1"/><path d="m256 422.525-26.92 81.96h53.84z" fill="#ffe177"/><path d="m255.878 352.943-26.716 29.047-19.23-29.047z" fill="#00f2a6"/><path d="m302.068 352.943-19.23 29.047-26.716-29.047z" fill="#00f2a6"/><path d="m256 352.811.122.132h-.244z" fill="#deecf1"/><path d="m256 422.525 19.038-28.752 17.034-40.828h-72.144l17.034 40.828z" fill="#ffe177"/><path d="m282.838 381.99-7.801 11.783-19.027-20.689-.01-.01-.01.01-19.027 20.689-7.801-11.783 26.716-29.047h.244z" fill="#ffc344"/><path d="m167.449 158.68v74.971c-3.644 0-7.167-10.446-10.498-11.416s-6.471 7.536-9.348 5.737c-10.593-6.624-17.639-18.392-17.639-31.806s7.046-25.183 17.639-31.806c2.724-1.704 5.683 6.859 8.818 5.896 3.486-1.074 7.189-11.576 11.028-11.576z" fill="#fed2a4"/><path d="m167.45 158.678v74.971c-7.296 0-14.095-2.084-19.852-5.688v-63.596c5.757-3.603 12.556-5.687 19.852-5.687z" fill="#ffbd86"/><path d="m344.551 158.68v74.971c20.703 0 37.485-16.783 37.485-37.485s-16.782-37.486-37.485-37.486z" fill="#f6a96c"/><path d="m256 83.307c-5.07 0-10.044-.58-14.89.215-43.377 7.11-76.475 44.768-76.475 90.158v40.738c0 45.389 33.097 83.047 76.474 90.157 4.846.794 9.82.215 14.89.215 50.459 0 90.372-39.913 90.372-90.372v-40.738c.001-50.461-39.912-90.373-90.371-90.373z" fill="#fed2a4"/><path d="m347.369 173.676v40.736c0 25.232-10.224 48.072-26.761 64.609s-39.377 26.76-64.608 26.76c-5.072 0-10.045-.417-14.889-1.211 19.266-3.156 36.508-12.338 49.719-25.549 16.537-16.537 26.76-39.377 26.76-64.609v-40.736c0-45.382-33.093-83.041-76.48-90.148 4.844-.794 9.817-1.211 14.889-1.211 50.465 0 91.37 40.905 91.37 91.359z" fill="#ffbd86"/><path d="m186.203 114.731c-10.408 12.294-17.616 27.387-20.339 43.985-9.022.372-17.232 3.928-23.501 9.591v-69.72c0-45.238 32.979-82.774 76.206-89.877 4.842-.796 9.813-.217 14.88-.217h.01c24.357 0 46.48 9.565 62.829 25.143.553.527 1.283.827 2.048.827h10.261c34.042 0 60.646 26.604 60.646 60.646l.993 73.757c-6.338-5.986-14.783-9.767-24.099-10.149-2.735-16.609-9.947-31.706-20.357-44.017-1.012-1.196-2.763-1.408-4.027-.482-43.715 32.042-87.562 31.859-131.538.022-1.264-.915-3.005-.7-4.012.491z" fill="#ffe177"/><path d="m370.239 95.111v73.75c-6.343-5.985-14.79-9.767-24.1-10.144-1.141-6.928-3.067-13.599-5.678-19.912v-43.694c0-34.046-27.604-61.641-61.641-61.641h-10.263c-.764 0-1.489-.298-2.045-.824-12.944-12.338-29.51-20.904-47.943-23.922 4.844-.804 9.817-1.221 14.879-1.221h.01c24.358 0 46.484 9.559 62.832 25.143.556.526 1.28.824 2.045.824h10.264c34.035.001 61.64 27.595 61.64 61.641z" fill="#ffc344"/><g fill="#eef5f6"><path d="m209.76 293.165-23.727 34.374 25.589 73.521 44.378-48.251z"/><path d="m302.241 293.165 23.726 34.374-25.589 73.521-44.378-48.251z"/></g></g></g><path d="m360.089 320.04h-30.185l-17.09-24.759c18.511-13.044 32.359-32.275 38.52-54.66 21.533-3.313 38.204-22.139 38.204-44.456 0-11.736-4.46-22.415-11.802-30.426v-70.631c0-38.123-31.016-69.138-69.139-69.138h-8.463c-18.243-16.762-41.847-25.97-66.685-25.97-20.752 0-40.606 6.375-57.415 18.436-3.365 2.415-4.136 7.101-1.721 10.466 2.414 3.365 7.099 4.135 10.466 1.721 14.244-10.221 31.074-15.623 48.679-15.623 21.565 0 42.041 8.194 57.657 23.074 1.961 1.868 4.525 2.896 7.22 2.896h10.261c29.852 0 54.139 24.286 54.139 54.138v59.88c-3.247-1.427-6.698-2.483-10.306-3.114-3.477-15.426-10.639-29.855-20.923-42.018-3.538-4.183-9.77-4.924-14.188-1.687-41.028 30.072-81.166 30.07-122.706-.004-4.407-3.192-10.616-2.436-14.134 1.72-10.283 12.147-17.441 26.567-20.91 41.99-3.386.593-6.635 1.56-9.706 2.857v-56.146c0-16.736 4.927-32.882 14.248-46.694 2.317-3.434 1.412-8.095-2.021-10.412-3.434-2.317-8.095-1.412-10.412 2.021-11 16.3-16.814 35.348-16.814 55.085v66.502c-7.701 8.078-12.399 19.024-12.399 31.077 0 22.319 16.67 41.144 38.204 44.456 6.16 22.385 20.009 41.615 38.519 54.659l-17.09 24.759h-30.186c-42.158 0-76.456 34.298-76.456 76.456v16.359c0 4.142 3.358 7.5 7.5 7.5s7.5-3.358 7.5-7.5v-16.359c0-33.887 27.569-61.456 61.456-61.456h28.791l23.786 68.342 15.727 93.619h-66.231v-55.705c0-4.142-3.358-7.5-7.5-7.5s-7.5 3.358-7.5 7.5v55.705h-48.53v-51.698c0-4.142-3.358-7.5-7.5-7.5s-7.5 3.358-7.5 7.5v54.591c0 6.676 5.431 12.107 12.107 12.107h222.81c4.142 0 7.5-3.358 7.5-7.5s-3.358-7.5-7.5-7.5h-18.587l15.727-93.617 23.787-68.343h28.791c33.887 0 61.457 27.569 61.457 61.456v100.504h-48.53v-55.705c0-4.142-3.358-7.5-7.5-7.5s-7.5 3.358-7.5 7.5v55.705h-15.196c-4.142 0-7.5 3.358-7.5 7.5s3.358 7.5 7.5 7.5h81.619c6.676 0 12.107-5.431 12.107-12.107v-103.397c-.001-42.159-34.299-76.456-76.457-76.456zm-5.733-95.562c.336-3.309.508-6.665.508-10.061v-40.738c0-1.92-.076-3.84-.186-5.757 11.818 4.206 19.858 15.711 19.858 28.243.001 12.992-8.474 24.207-20.18 28.313zm-216.893-28.313c0-12.542 8.027-24.032 19.858-28.243-.111 1.917-.186 3.837-.186 5.757v40.738c0 3.396.173 6.753.508 10.062-11.705-4.106-20.18-15.322-20.18-28.314zm34.672 18.252v-40.738c0-4.57.372-9.151 1.102-13.62.008-.043.021-.085.028-.128 2.215-13.501 7.746-26.256 16.069-37.133 22.247 15.293 44.566 22.939 66.833 22.937 22.267-.001 44.485-7.653 66.492-22.949 8.314 10.882 13.845 23.633 16.071 37.123.007.044.019.086.027.129.002.012.005.024.008.036.729 4.464 1.1 9.041 1.1 13.606v40.738c0 30.798-16.698 57.754-41.506 72.337-.036.022-.073.04-.108.062-12.417 7.274-26.85 11.466-42.25 11.466-15.404 0-29.84-4.193-42.259-11.471-.023-.014-.047-.026-.069-.04-24.826-14.58-41.538-41.545-41.538-72.355zm83.865 98.864c8.029 0 15.835-.969 23.314-2.784l-23.314 30.071-23.314-30.071c7.479 1.815 15.285 2.784 23.314 2.784zm36.304 90.079-11.743 69.907-16.302-49.632 19.545-29.518zm-64.108-9.242 19.545 29.518-16.302 49.632-11.744-69.907zm27.804 52.441 16.567 50.441h-33.135zm0-37.619-17.344-26.194 17.344-18.858 17.344 18.858zm-45.889-103.081 36.079 46.536-31.604 34.363-20.219-58.091zm87.304 80.9-8.117-8.826c-.486-.79-1.127-1.497-1.912-2.079l-21.576-23.459 36.079-46.536 15.744 22.809z"/></g></svg>